# xmcd
#
# Track frame offsets:
#	183
#	11970
#	23383
#	37933
#	51185
#	64920
#	80233
#	92983
#	102358
#	119588
#	136558
#	147533
#
# Disc length: 2113 seconds
#
# Revision: 1
# Processed by: cddbd v1.4PL0 Copyright (c) Steve Scherf et al.
# Submitted via: audiograbber 1.81.02
#
DISCID=a5083f0c
DTITLE=Fred Bongusto - I successi di...
DYEAR=1962
DGENRE=60
TTITLE0=Amore fermati
TTITLE1=Spaghetti insalatina e una tazina di caffè
TTITLE2=Se ti innamorerai
TTITLE3=Ore d'amore(The world we Knew)
TTITLE4=Se l'amore potesse ritornare
TTITLE5=Che sera triste che chiaro 'e luna
TTITLE6=Una rotonda sul mare
TTITLE7=Malaga
TTITLE8=3 Settimane da raccontare
TTITLE9=Doce doce
TTITLE10=Frida
TTITLE11=E mi consuma l'estate
EXTD=
EXTT0=
EXTT1=
EXTT2=
EXTT3=
EXTT4=
EXTT5=
EXTT6=
EXTT7=
EXTT8=
EXTT9=
EXTT10=
EXTT11=
PLAYORDER=
